grf
version=1
nRows=15
nColumns=28
inDegrees=yes
endheader
time	ground_force_1_vx	ground_force_1_vy	ground_force_1_vz	ground_force_1_px	ground_force_1_py	ground_force_1_pz	ground_moment_1_mx	ground_moment_1_my	ground_moment_1_mz	ground_force_2_vx	ground_force_2_vy	ground_force_2_vz	ground_force_2_px	ground_force_2_py	ground_force_2_pz	ground_moment_2_mx	ground_moment_2_my	ground_moment_2_mz	ground_force_3_vx	ground_force_3_vy	ground_force_3_vz	ground_force_3_px	ground_force_3_py	ground_force_3_pz	ground_moment_3_mx	ground_moment_3_my	ground_moment_3_mz
0.000000	0.000000	0.000000	0.000000	-1.615621	0.000000	-0.164978	0.000000	0.000000	0.000000	0.000000	0.000000	0.000000	0.196015	0.000000	-0.188386	0.000000	0.000000	0.000000	0.000000	0.000000	0.000000	1.094830	0.000000	-0.086157	0.000000	0.000000	0.000000
0.000833	0.000000	0.000000	0.000000	0.671651	0.000000	-0.456363	0.000000	0.000000	0.000000	0.000000	0.000000	0.000000	0.278962	0.000000	-0.178300	0.000000	0.000000	0.000000	0.000000	0.000000	0.000000	0.912493	0.000000	-0.352807	0.000000	0.000000	0.000000
0.001667	0.000000	0.000000	0.000000	-0.405679	-0.000000	0.067272	0.000000	0.000000	0.000000	0.000000	0.000000	0.000000	0.266070	0.000000	-0.222077	0.000000	0.000000	0.000000	0.000000	0.000000	0.000000	0.990456	0.000000	-0.389618	0.000000	0.000000	0.000000
0.002500	0.000000	0.000000	0.000000	-0.229685	0.000000	-0.353026	0.000000	0.000000	0.000000	0.000000	0.000000	0.000000	1.577548	0.000000	-0.135354	0.000000	0.000000	0.000000	0.000000	0.000000	0.000000	0.935291	0.000000	-0.517493	0.000000	0.000000	0.000000
0.003333	0.000000	0.000000	0.000000	-0.326810	0.000000	-0.446236	0.000000	0.000000	0.000000	0.000000	0.000000	0.000000	0.615916	0.000000	-0.035011	0.000000	0.000000	0.000000	0.000000	0.000000	0.000000	1.121394	0.000000	-0.489702	0.000000	0.000000	0.000000
0.004167	0.000000	0.000000	0.000000	-0.241158	0.000000	-0.340776	0.000000	0.000000	0.000000	0.000000	0.000000	0.000000	0.377952	0.000000	-0.369383	0.000000	0.000000	0.000000	0.000000	0.000000	0.000000	1.340209	0.000000	-1.269726	0.000000	0.000000	0.000000
0.005000	0.000000	0.000000	0.000000	3.185985	0.000000	-4.482103	0.000000	0.000000	0.000000	0.000000	0.000000	0.000000	0.202487	0.000000	-0.366194	0.000000	0.000000	0.000000	0.000000	0.000000	0.000000	0.227685	0.000000	-0.119275	0.000000	0.000000	0.000000
0.005833	0.000000	0.000000	0.000000	-0.190231	0.000000	-0.117547	0.000000	0.000000	0.000000	0.000000	0.000000	0.000000	0.123260	0.000000	-0.263536	0.000000	0.000000	0.000000	0.000000	0.000000	0.000000	1.246038	0.000000	-0.224936	0.000000	0.000000	0.000000
0.006667	0.000000	0.000000	0.000000	-0.256966	0.000000	-0.557671	0.000000	0.000000	0.000000	0.000000	0.000000	0.000000	-1.695244	-0.000000	1.495742	0.000000	0.000000	0.000000	0.000000	0.000000	0.000000	-0.715298	-0.000000	0.121138	0.000000	0.000000	0.000000
0.007500	0.000000	0.000000	0.000000	0.151326	-0.000000	0.536318	0.000000	0.000000	0.000000	0.000000	0.000000	0.000000	0.165505	0.000000	-0.228092	0.000000	0.000000	0.000000	0.000000	0.000000	0.000000	0.884066	0.000000	-0.481922	0.000000	0.000000	0.000000
0.008333	0.000000	0.000000	0.000000	-0.074318	0.000000	-0.364552	0.000000	0.000000	0.000000	0.000000	0.000000	0.000000	0.317702	-0.000000	0.325914	0.000000	0.000000	0.000000	0.000000	0.000000	0.000000	1.091333	0.000000	-1.104335	0.000000	0.000000	0.000000
0.009167	0.000000	0.000000	0.000000	0.438470	0.000000	-0.054298	0.000000	0.000000	0.000000	0.000000	0.000000	0.000000	0.065631	0.000000	-0.965993	0.000000	0.000000	0.000000	0.000000	0.000000	0.000000	1.161824	0.000000	-0.426498	0.000000	0.000000	0.000000
0.010000	0.000000	0.000000	0.000000	0.374406	0.000000	-0.872695	0.000000	0.000000	0.000000	0.000000	0.000000	0.000000	0.124062	-0.000000	0.813573	0.000000	0.000000	0.000000	0.000000	0.000000	0.000000	0.775097	0.000000	-0.392220	0.000000	0.000000	0.000000
0.010833	0.000000	0.000000	0.000000	-0.381219	0.000000	-0.685470	0.000000	0.000000	0.000000	0.000000	0.000000	0.000000	0.054413	0.000000	-0.072645	0.000000	0.000000	0.000000	0.000000	0.000000	0.000000	1.089746	0.000000	-0.378846	0.000000	0.000000	0.000000
0.011667	0.000000	0.000000	0.000000	-0.193783	0.000000	-0.604920	0.000000	0.000000	0.000000	0.000000	0.000000	0.000000	3.204097	-0.000000	6.629526	0.000000	0.000000	0.000000	0.000000	0.000000	0.000000	1.022050	0.000000	-0.499802	0.000000	0.000000	0.000000
